<svg xmlns="http://www.w3.org/2000/svg" viewBox="0 0 283.412 141.533"><path fill="#cce3f2" fill-rule="evenodd" d="M29.413 11.087h147.999v107.25H29.413z" clip-rule="evenodd"/><path fill="#f3d4d5" fill-rule="evenodd" d="M152.744 11.087h123.332v106.791H152.744z" clip-rule="evenodd"/><path fill="none" stroke="#b3b3b3" stroke-width=".5" stroke-miterlimit="10" d="M54.079 120.503V11.087m24.667 109.416V11.087" clip-rule="evenodd" stroke-linecap="round" stroke-linejoin="round"/><path d="M77.301 129.283v-.45l.495-.675c.693-.964 1.521-2.062 1.521-3.16 0-.648-.288-1.044-.837-1.044-.423 0-.693.225-.846.323l-.171-.521a1.831 1.831 0 0 1 1.143-.396c.973 0 1.396.721 1.396 1.603 0 1.099-.72 2.16-1.44 3.151l-.396.54v.018h1.954v.612h-2.819z"/><path fill="none" stroke="#b3b3b3" stroke-width=".5" stroke-miterlimit="10" d="M103.412 120.503V11.087" clip-rule="evenodd" stroke-linecap="round" stroke-linejoin="round"/><path fill="none" stroke="#b3b3b3" stroke-width=".5" stroke-miterlimit="10" d="M128.079 120.503V11.087" clip-rule="evenodd" stroke-linecap="round" stroke-linejoin="round"/><path d="M128.453 129.283v-1.611h-1.944v-.469l1.899-3.771h.675v3.673h.639v.567h-.639v1.611h-.63zm0-2.179v-1.656c0-.405.027-.766.054-1.152h-.036c-.198.468-.324.747-.495 1.107l-.81 1.684v.018h1.287z"/><path fill="none" stroke="#b3b3b3" stroke-width=".5" stroke-miterlimit="10" d="M152.745 120.503V11.087" clip-rule="evenodd" stroke-linecap="round" stroke-linejoin="round"/><path d="M154.011 124.044h-1.576l-.243 1.558c.072-.019.135-.019.216-.019.315 0 .801.135 1.116.441.306.306.486.738.486 1.332 0 1.161-.729 1.999-1.774 1.999-.351 0-.756-.1-.99-.252l.153-.559c.18.108.495.234.819.234.594 0 1.107-.459 1.107-1.351 0-.928-.567-1.314-1.323-1.314-.216 0-.351.009-.459.027l.369-2.71h2.098v.614z"/><path fill="none" stroke="#b3b3b3" stroke-width=".5" stroke-miterlimit="10" d="M177.411 120.503V11.087" clip-rule="evenodd" stroke-linecap="round" stroke-linejoin="round"/><path d="M178.552 123.944c-.117.01-.243.027-.415.063-.972.233-1.359 1.206-1.503 2.106h.027c.225-.333.549-.559.99-.559.747 0 1.26.685 1.26 1.801 0 1.107-.504 1.999-1.44 1.999-1.017 0-1.53-1.035-1.53-2.377 0-1.135.297-2.017.756-2.638.352-.495.91-.819 1.414-.928.188-.035.342-.045.441-.054v.587zm-.334 3.467c0-.883-.306-1.324-.783-1.324-.288 0-.585.198-.756.631a.934.934 0 0 0-.054.351c.009 1.197.378 1.747.846 1.747.396-.001.747-.388.747-1.405z"/><path fill="none" stroke="#b3b3b3" stroke-width=".5" stroke-miterlimit="10" d="M202.077 120.503V11.087" clip-rule="evenodd" stroke-linecap="round" stroke-linejoin="round"/><path d="M203.497 123.432v.414l-1.891 5.438h-.676l1.855-5.222v-.018h-2.107v-.612h2.819z"/><path fill="none" stroke="#b3b3b3" stroke-width=".5" stroke-miterlimit="10" d="M226.743 120.503V11.087" clip-rule="evenodd" stroke-linecap="round" stroke-linejoin="round"/><path d="M225.265 127.852c0-.819.486-1.341.963-1.674l-.009-.019c-.486-.333-.766-.846-.766-1.342 0-.899.64-1.458 1.368-1.458.838 0 1.252.702 1.252 1.378 0 .513-.243 1.008-.783 1.377v.027c.54.359.936.891.936 1.593 0 .909-.603 1.621-1.503 1.621-.972 0-1.458-.774-1.458-1.503zm2.277-.073c0-.675-.387-1.053-.838-1.35-.468.288-.756.792-.756 1.305 0 .657.297 1.107.801 1.107.433.001.793-.332.793-1.062zm-1.422-3.007c0 .595.359.892.72 1.126.351-.252.585-.64.585-1.081 0-.566-.234-.944-.657-.944-.387 0-.648.368-.648.899z"/><path fill="none" stroke="#b3b3b3" stroke-width=".5" stroke-miterlimit="10" d="M251.409 120.503V11.087" clip-rule="evenodd" stroke-linecap="round" stroke-linejoin="round"/><path d="M250.282 128.761c.152 0 .279-.018.432-.054a1.67 1.67 0 0 0 .801-.459c.324-.36.586-.892.686-1.666h-.027c-.217.279-.522.495-.945.495-.729 0-1.279-.675-1.279-1.737 0-1.071.576-1.98 1.477-1.98 1 0 1.468 1.054 1.468 2.35 0 1.152-.288 2.062-.774 2.71a2.33 2.33 0 0 1-1.35.892 2.504 2.504 0 0 1-.486.045v-.596zm.351-3.484c0 .864.324 1.278.792 1.278.289 0 .576-.198.721-.522a.953.953 0 0 0 .055-.378c0-1.225-.352-1.756-.811-1.756-.352 0-.757.378-.757 1.378z"/><path fill="none" stroke="#b3b3b3" stroke-width=".5" stroke-miterlimit="10" d="M276.075 120.503V11.087" clip-rule="evenodd" stroke-linecap="round" stroke-linejoin="round"/><path d="M274.306 124.134h-.019l-.972.558-.135-.54 1.232-.72h.576v5.852h-.684v-5.15zm4.995 2.215c0 2.134-.675 3.007-1.521 3.007-.909 0-1.458-1.081-1.458-2.989 0-1.972.584-3.007 1.539-3.007.945-.001 1.44 1.124 1.44 2.989zm-2.287.008c0 1.413.243 2.403.819 2.403.549 0 .774-.999.774-2.403 0-1.368-.226-2.403-.783-2.403s-.81.999-.81 2.403z"/><path fill="none" stroke="#000" stroke-miterlimit="10" d="M26.829 118.337h249.246" clip-rule="evenodd" stroke-linecap="round" stroke-linejoin="round"/><path fill="none" stroke="#b3b3b3" stroke-width=".5" stroke-miterlimit="10" d="M26.829 110.087h249.249" clip-rule="evenodd" stroke-linecap="round" stroke-linejoin="round"/><path d="M18.437 112.087v-.45l.495-.675c.693-.964 1.521-2.062 1.521-3.16 0-.648-.288-1.044-.837-1.044-.423 0-.693.225-.846.323l-.17-.521a1.831 1.831 0 0 1 1.143-.396c.973 0 1.396.721 1.396 1.603 0 1.099-.72 2.16-1.44 3.151l-.396.54v.018h1.954v.612h-2.82zm6.4-2.935c0 2.134-.675 3.007-1.521 3.007-.909 0-1.458-1.081-1.458-2.989 0-1.972.585-3.007 1.54-3.007.944 0 1.439 1.125 1.439 2.989zm-2.287.009c0 1.413.243 2.403.819 2.403.549 0 .774-.999.774-2.403 0-1.368-.225-2.403-.783-2.403s-.81.999-.81 2.403z"/><path fill="none" stroke="#b3b3b3" stroke-width=".5" stroke-miterlimit="10" d="M26.829 101.837h249.249m-249.249-8.25h249.249m-249.249-8.25h249.249m-249.249-8.25h249.249" clip-rule="evenodd" stroke-linecap="round" stroke-linejoin="round"/><path d="M21.021 90.806c-.117.01-.243.027-.415.063-.972.233-1.359 1.206-1.503 2.106h.027c.225-.333.549-.559.99-.559.747 0 1.26.685 1.26 1.801 0 1.107-.504 1.999-1.44 1.999-1.017 0-1.53-1.035-1.53-2.377 0-1.135.297-2.017.756-2.638.352-.495.91-.819 1.414-.928.189-.035.342-.045.441-.054v.587zm-.333 3.467c0-.883-.306-1.324-.783-1.324-.288 0-.585.198-.756.631a.934.934 0 0 0-.054.351c.009 1.197.378 1.747.846 1.747.396-.001.747-.388.747-1.405zm4.149-1.063c0 2.134-.675 3.007-1.521 3.007-.909 0-1.458-1.081-1.458-2.989 0-1.972.585-3.007 1.54-3.007.944 0 1.439 1.125 1.439 2.989zm-2.287.009c0 1.413.243 2.403.819 2.403.549 0 .774-.999.774-2.403 0-1.368-.225-2.403-.783-2.403s-.81.999-.81 2.403z"/><path fill="none" stroke="#b3b3b3" stroke-width=".5" stroke-miterlimit="10" d="M26.829 68.837h249.249m-249.249-8.25h249.249" clip-rule="evenodd" stroke-linecap="round" stroke-linejoin="round"/><path d="M16.376 74.496h-.018l-.972.558-.135-.54 1.233-.72h.576v5.852h-.685v-5.15zm4.996 2.214c0 2.134-.675 3.007-1.521 3.007-.91 0-1.458-1.081-1.458-2.989 0-1.972.585-3.007 1.54-3.007.944 0 1.439 1.125 1.439 2.989zm-2.287.009c0 1.413.243 2.403.819 2.403.549 0 .774-.999.774-2.403 0-1.368-.225-2.403-.783-2.403s-.81.999-.81 2.403zm5.752-.009c0 2.134-.675 3.007-1.521 3.007-.91 0-1.458-1.081-1.458-2.989 0-1.972.585-3.007 1.54-3.007.944 0 1.439 1.125 1.439 2.989zm-2.287.009c0 1.413.243 2.403.819 2.403.549 0 .774-.999.774-2.403 0-1.368-.225-2.403-.783-2.403s-.81.999-.81 2.403z"/><path fill="none" stroke="#b3b3b3" stroke-width=".5" stroke-miterlimit="10" d="M26.829 52.337h249.249m-249.249-8.25h249.249" clip-rule="evenodd" stroke-linecap="round" stroke-linejoin="round"/><path d="M16.376 58.104h-.018l-.972.558-.135-.54 1.233-.72h.576v5.852h-.685v-5.15zm3.879 5.149v-1.611h-1.944v-.469l1.899-3.771h.675v3.673h.639v.567h-.639v1.611h-.63zm0-2.178v-1.656c0-.405.027-.766.054-1.152h-.036c-.198.468-.324.747-.495 1.107l-.81 1.684v.018h1.287zm4.582-.756c0 2.134-.675 3.007-1.521 3.007-.91 0-1.458-1.081-1.458-2.989 0-1.972.585-3.007 1.54-3.007.944 0 1.439 1.125 1.439 2.989zm-2.287.009c0 1.413.243 2.403.819 2.403.549 0 .774-.999.774-2.403 0-1.368-.225-2.403-.783-2.403s-.81.998-.81 2.403z"/><path fill="none" stroke="#b3b3b3" stroke-width=".5" stroke-miterlimit="10" d="M26.829 35.837h249.249m-249.249-8.25h249.249m-249.249-8.25h249.249" clip-rule="evenodd" stroke-linecap="round" stroke-linejoin="round"/><path d="M16.376 41.937h-.018l-.972.558-.135-.54 1.233-.72h.576v5.852h-.685v-5.15zm2.025 3.718c0-.819.486-1.341.963-1.674l-.009-.019c-.486-.333-.766-.846-.766-1.342 0-.899.639-1.458 1.369-1.458.837 0 1.251.702 1.251 1.378 0 .513-.243 1.008-.783 1.377v.027c.54.359.936.891.936 1.593 0 .909-.603 1.621-1.503 1.621-.972.001-1.458-.773-1.458-1.503zm2.278-.072c0-.675-.387-1.053-.837-1.35-.468.288-.756.792-.756 1.305 0 .657.297 1.107.801 1.107.431 0 .792-.333.792-1.062zm-1.423-3.007c0 .595.36.892.72 1.126.351-.252.585-.64.585-1.081 0-.566-.234-.944-.657-.944-.387 0-.648.368-.648.899zm5.581 1.576c0 2.134-.675 3.007-1.521 3.007-.91 0-1.458-1.081-1.458-2.989 0-1.972.585-3.007 1.54-3.007.944 0 1.439 1.125 1.439 2.989zm-2.287.009c0 1.413.243 2.403.819 2.403.549 0 .774-.999.774-2.403 0-1.368-.225-2.403-.783-2.403s-.81.999-.81 2.403z"/><path fill="none" stroke="#b3b3b3" stroke-width=".5" stroke-miterlimit="10" d="M26.829 11.087h249.249" clip-rule="evenodd" stroke-linecap="round" stroke-linejoin="round"/><path fill="none" stroke="#000" stroke-miterlimit="10" d="M54.079 113.503l24.667-3.267 24.666-8.399 24.667-16.5 24.666-33v33l24.667-4.167 24.666-4.025 24.667-8.308 24.664-16.8m-197.33 68.466v-2.166m24.667 2.166v-2.166m24.666 2.166v-2.166m24.667 2.166v-2.166m24.666 2.166v-2.166m24.666 2.166v-2.166m24.666 2.166v-2.166m24.668 2.166v-2.166m24.666 2.166v-2.166m24.666 2.166v-2.166" clip-rule="evenodd" stroke-linecap="round" stroke-linejoin="round"/><path d="M54.039 124.134h-.018l-.972.558-.135-.54 1.233-.72h.576v5.852h-.684v-5.15z"/><path fill="none" stroke="#000" stroke-miterlimit="10" d="M26.829 110.087h2.584m-2.584-8.25h2.584m-2.584-8.25h2.584m-2.584-8.25h2.584m-2.584-8.25h2.584m-2.584-8.25h2.584m-2.584-8.25h2.584m-2.584-8.25h2.584m-2.584-8.25h2.584m-2.584-8.25h2.584m-2.584-8.25h2.584m-2.584-8.25h2.584m-2.584-8.25h2.584m0 109.416V11.087" clip-rule="evenodd" stroke-linecap="round" stroke-linejoin="round"/><circle cx="54.079" cy="113.503" r="2" fill="#0071bc" fill-rule="evenodd" clip-rule="evenodd"/><circle cx="78.746" cy="110.087" r="2" fill="#0071bc" fill-rule="evenodd" clip-rule="evenodd"/><circle cx="103.412" cy="101.837" r="2" fill="#0071bc" fill-rule="evenodd" clip-rule="evenodd"/><circle cx="128.079" cy="85.337" r="2" fill="#0071bc" fill-rule="evenodd" clip-rule="evenodd"/><circle cx="177.412" cy="81.17" r="2" fill="#009245" fill-rule="evenodd" clip-rule="evenodd"/><circle cx="202.078" cy="77.145" r="2" fill="#009245" fill-rule="evenodd" clip-rule="evenodd"/><circle cx="226.745" cy="68.837" r="2" fill="#009245" fill-rule="evenodd" clip-rule="evenodd"/><circle cx="251.409" cy="52.037" r="2" fill="#009245" fill-rule="evenodd" clip-rule="evenodd"/><circle cx="152.745" cy="52.337" r="2" fill="#c1272d" fill-rule="evenodd" clip-rule="evenodd"/><path fill="none" stroke="#000" d="M177.837 99.352l-17.29-9.666" stroke-linecap="round" stroke-linejoin="round"/><path d="M162.776 87.494l-5.983.082 3.063 5.14z"/><path fill="none" stroke="#000" d="M99.486 73.503h17.851" stroke-linecap="round" stroke-linejoin="round"/><path d="M116.462 76.504l5.181-2.991-5.181-2.992zm67.947 21.723c-.045-.802-.091-1.693-.063-2.377h-.036a34.798 34.798 0 0 1-.486 2.106l-.747 2.845h-.44l-.712-2.728a27.18 27.18 0 0 1-.495-2.224h-.026c0 .711-.036 1.558-.072 2.422l-.117 2.565h-.621l.36-6.067h.747l.711 2.772c.207.801.36 1.396.486 2.089h.027c.116-.693.252-1.27.449-2.089l.685-2.772h.774l.351 6.067h-.647l-.128-2.609zm4.275 1.421c0 .486.027.864.036 1.188h-.604l-.045-.459h-.018c-.136.216-.469.531-.937.531-.766 0-1.062-.595-1.062-1.675v-2.755h.693v2.656c0 .684.108 1.188.585 1.188.405 0 .585-.379.621-.576.027-.117.036-.253.036-.396v-2.872h.693v3.17zm.971-5.041h.692v6.229h-.692v-6.229zm2.565.72v1.152h.837v.531h-.837v2.584c0 .567.207.72.459.72.108 0 .198-.009.279-.026l.027.531a1.524 1.524 0 0 1-.514.071c-.27 0-.513-.071-.684-.261-.172-.198-.262-.495-.262-1.099v-2.521h-.531v-.531h.531v-.954l.695-.197zm2.196.027c.009.27-.162.45-.424.45-.225 0-.396-.181-.396-.45 0-.271.18-.45.405-.45.253 0 .415.18.415.45zm-.747 5.483V96.48h.692v4.357h-.692zm1.646-2.998c0-.666-.027-1.053-.036-1.359h.621l.036.559h.018c.234-.469.576-.631.919-.631.756 0 1.26.811 1.26 2.242 0 1.611-.666 2.26-1.35 2.26-.405 0-.64-.262-.757-.505h-.018v2.161h-.693v-4.727zm.694 1.395c0 .135 0 .261.026.36.136.621.45.738.64.738.576 0 .756-.792.756-1.675 0-.9-.216-1.656-.765-1.656-.315 0-.595.396-.64.792-.018.108-.018.216-.018.333v1.108zm2.906-4.627h.693v6.229h-.693v-6.229zm2.466.747c.009.27-.162.45-.423.45-.226 0-.396-.181-.396-.45 0-.271.181-.45.405-.45.252 0 .414.18.414.45zm-.747 5.483V96.48h.693v4.357h-.693zm3.78-.108c-.153.091-.414.162-.72.162-.954 0-1.594-.765-1.594-2.205 0-1.252.63-2.269 1.72-2.269.233 0 .486.062.612.135l-.136.567a1.13 1.13 0 0 0-.495-.117c-.693 0-1.008.828-1.008 1.684 0 1.017.387 1.629 1.026 1.629.188 0 .342-.045.504-.117l.091.531zm2.34.108l-.045-.459h-.027c-.188.333-.495.531-.864.531-.585 0-1.035-.495-1.035-1.242 0-1.09.873-1.576 1.854-1.585v-.135c0-.585-.144-.99-.693-.99-.27 0-.513.09-.72.225l-.153-.486c.18-.135.585-.288 1.018-.288.873 0 1.251.576 1.251 1.558v1.882c0 .333 0 .711.045.99h-.631zm-.1-2.251c-.359 0-1.197.063-1.197 1.009 0 .567.288.774.531.774.307 0 .567-.226.648-.657.018-.081.018-.171.018-.243v-.883zm2.421-3.259v1.152h.837v.531h-.837v2.584c0 .567.207.72.459.72.108 0 .198-.009.279-.026l.027.531a1.524 1.524 0 0 1-.514.071c-.27 0-.513-.071-.684-.261-.172-.198-.262-.495-.262-1.099v-2.521h-.531v-.531h.531v-.954l.695-.197zm2.196.027c.009.27-.162.45-.424.45-.225 0-.396-.181-.396-.45 0-.271.18-.45.405-.45.253 0 .415.18.415.45zm-.747 5.483V96.48h.692v4.357h-.692zm2.007-4.358l.549 2.449c.062.297.135.684.189 1.062h.026c.045-.359.117-.729.181-1.062l.54-2.449h.684l-1.134 4.357h-.621l-1.135-4.357h.721zm3.141 2.243c.01 1.332.531 1.62 1.036 1.62.297 0 .549-.072.72-.171l.108.513c-.243.136-.612.207-.955.207-1.044 0-1.584-.854-1.584-2.188 0-1.413.594-2.296 1.468-2.296.891 0 1.242.937 1.242 1.927 0 .162 0 .279-.009.388h-2.026zm1.369-.514c.018-.873-.315-1.261-.648-1.261-.45 0-.685.667-.711 1.261h1.359zm2.879-3.349c.271-.081.586-.117.937-.117.64 0 1.09.162 1.423.459.468.405.819 1.188.819 2.458 0 1.386-.343 2.143-.729 2.557-.396.45-.973.657-1.675.657-.279 0-.567-.019-.774-.063v-5.951zm.693 5.411c.1.019.198.019.262.019.765 0 1.503-.55 1.503-2.611 0-1.53-.468-2.367-1.44-2.367-.108 0-.234.009-.324.036v4.923zm3.816-1.548c.01 1.332.531 1.62 1.036 1.62.297 0 .549-.072.72-.171l.108.513c-.243.136-.612.207-.955.207-1.044 0-1.584-.854-1.584-2.188 0-1.413.594-2.296 1.468-2.296.891 0 1.242.937 1.242 1.927 0 .162 0 .279-.009.388h-2.026zm1.369-.514c.018-.873-.315-1.261-.648-1.261-.45 0-.685.667-.711 1.261h1.359zm3.537 2.521c-.153.091-.414.162-.72.162-.954 0-1.594-.765-1.594-2.205 0-1.252.63-2.269 1.72-2.269.233 0 .486.062.612.135l-.136.567a1.13 1.13 0 0 0-.495-.117c-.693 0-1.008.828-1.008 1.684 0 1.017.387 1.629 1.026 1.629.188 0 .342-.045.504-.117l.091.531zm.584-3.125c0-.368-.026-.801-.036-1.125h.622l.035.685h.019c.144-.414.513-.757.918-.757.055 0 .1.01.145.01v.711c-.045-.009-.09-.009-.145-.009-.441 0-.765.404-.837.909a2.524 2.524 0 0 0-.027.396v2.413h-.693v-3.233zm2.602 1.118c.009 1.332.531 1.62 1.035 1.62.297 0 .549-.072.721-.171l.107.513c-.243.136-.612.207-.954.207-1.044 0-1.585-.854-1.585-2.188 0-1.413.595-2.296 1.468-2.296.892 0 1.242.937 1.242 1.927 0 .162 0 .279-.009.388h-2.025zm1.368-.514c.019-.873-.315-1.261-.648-1.261-.45 0-.684.667-.711 1.261h1.359zm3.132 2.629l-.045-.459h-.026c-.189.333-.495.531-.864.531-.586 0-1.036-.495-1.036-1.242 0-1.09.874-1.576 1.855-1.585v-.135c0-.585-.145-.99-.693-.99-.271 0-.514.09-.721.225l-.153-.486c.181-.135.586-.288 1.018-.288.873 0 1.252.576 1.252 1.558v1.882c0 .333 0 .711.045.99h-.632zm-.099-2.251c-.36 0-1.197.063-1.197 1.009 0 .567.288.774.531.774.306 0 .567-.226.648-.657.018-.081.018-.171.018-.243v-.883zm1.538 1.531c.153.099.424.225.702.225.396 0 .64-.243.64-.63 0-.333-.117-.559-.559-.855-.567-.369-.873-.738-.873-1.242 0-.702.522-1.207 1.197-1.207.342 0 .604.117.783.226l-.188.522a1.026 1.026 0 0 0-.576-.189.533.533 0 0 0-.567.549c0 .298.107.459.54.757.504.324.9.72.9 1.323 0 .873-.595 1.296-1.306 1.296-.324 0-.675-.099-.864-.252l.171-.523zm3.204-1.395c.01 1.332.531 1.62 1.036 1.62.297 0 .549-.072.72-.171l.108.513c-.243.136-.612.207-.955.207-1.044 0-1.584-.854-1.584-2.188 0-1.413.594-2.296 1.468-2.296.891 0 1.242.937 1.242 1.927 0 .162 0 .279-.009.388h-2.026zm1.369-.514c.018-.873-.315-1.261-.648-1.261-.45 0-.685.667-.711 1.261h1.359zM46.189 73.264h-1.521v2.277h1.729v.604h-2.422v-6.067h2.314v.603h-1.621v1.999h1.521v.584zm1.304-1.476l.405.937c.108.252.189.504.288.765h.018c.099-.278.198-.53.288-.765l.396-.937h.712l-1.035 2.151 1.026 2.206h-.756l-.415-.981c-.099-.234-.18-.459-.288-.747h-.018c-.09.261-.189.495-.288.747l-.405.981h-.702l1.035-2.188-1.008-2.17h.747zm2.664 1.359c0-.666-.027-1.053-.036-1.359h.622l.036.559h.018c.234-.469.576-.631.918-.631.756 0 1.26.811 1.26 2.242 0 1.611-.666 2.26-1.351 2.26-.405 0-.639-.262-.756-.505h-.018v2.161h-.693v-4.727zm.694 1.395c0 .135 0 .261.027.36.135.621.45.738.639.738.576 0 .756-.792.756-1.675 0-.9-.216-1.656-.765-1.656-.315 0-.594.396-.639.792-.018.108-.018.216-.018.333v1.108zm5.58-.576c0 1.684-.783 2.251-1.45 2.251-.783 0-1.414-.712-1.414-2.242 0-1.593.711-2.26 1.458-2.26.776 0 1.406.73 1.406 2.251zm-2.17 0c0 .721.126 1.701.756 1.701.594 0 .711-1.026.711-1.701 0-.666-.117-1.692-.729-1.692-.621 0-.738 1.026-.738 1.692zm2.943-1.053c0-.513-.027-.773-.036-1.125h.603l.036.522h.018c.189-.352.54-.595.999-.595.604 0 1.054.45 1.054 1.504v2.926h-.693v-2.809c0-.514-.099-1.035-.603-1.035-.288 0-.567.243-.657.711a2.445 2.445 0 0 0-.027.387v2.746h-.693v-3.232zm4.131 1.117c.009 1.332.531 1.62 1.036 1.62.297 0 .549-.072.72-.171l.108.513c-.243.136-.612.207-.955.207-1.044 0-1.584-.854-1.584-2.188 0-1.413.594-2.296 1.468-2.296.891 0 1.242.937 1.242 1.927 0 .162 0 .279-.009.388h-2.026zm1.369-.514c.018-.873-.315-1.261-.648-1.261-.45 0-.684.667-.711 1.261h1.359zm1.412-.603c0-.513-.027-.773-.036-1.125h.603l.036.522h.018c.189-.352.54-.595.999-.595.604 0 1.054.45 1.054 1.504v2.926h-.693v-2.809c0-.514-.099-1.035-.603-1.035-.288 0-.567.243-.657.711a2.445 2.445 0 0 0-.027.387v2.746h-.693v-3.232zm4.437-2.278v1.152h.837v.531h-.837v2.584c0 .567.207.72.459.72.108 0 .198-.009.279-.026l.027.531a1.522 1.522 0 0 1-.513.071c-.27 0-.513-.071-.684-.261-.171-.198-.261-.495-.261-1.099v-2.521h-.531v-.531h.531v-.954l.693-.197zm2.196.028c.009.27-.162.45-.423.45-.225 0-.396-.181-.396-.45 0-.271.18-.45.405-.45.252-.001.414.179.414.45zm-.747 5.482v-4.357h.693v4.357h-.693zm3.375 0l-.045-.459h-.027c-.189.333-.495.531-.864.531-.585 0-1.036-.495-1.036-1.242 0-1.09.874-1.576 1.855-1.585v-.135c0-.585-.145-.99-.693-.99-.27 0-.513.09-.72.225l-.153-.486c.18-.135.585-.288 1.018-.288.873 0 1.251.576 1.251 1.558v1.882c0 .333 0 .711.045.99h-.631zm-.099-2.251c-.36 0-1.197.063-1.197 1.009 0 .567.288.774.531.774.306 0 .567-.226.648-.657.018-.081.018-.171.018-.243v-.883zm1.656-3.978h.693v6.229h-.693v-6.229zm6.174 6.076a3.115 3.115 0 0 1-1.08.207c-.531 0-1.026-.144-1.432-.594-.441-.469-.738-1.306-.729-2.413.009-2.358 1.215-3.169 2.287-3.169.378 0 .675.072.864.171l-.153.595c-.162-.081-.378-.145-.702-.145-.756 0-1.576.604-1.576 2.485 0 1.872.711 2.476 1.44 2.476.234 0 .369-.045.423-.072v-1.98h-.784v-.576h1.44v3.015zm.899-3.079c0-.368-.027-.801-.036-1.125h.622l.036.685h.018c.144-.414.513-.757.918-.757.054 0 .099.01.144.01v.711c-.045-.009-.09-.009-.144-.009-.441 0-.765.404-.837.909a2.65 2.65 0 0 0-.027.396v2.413h-.693v-3.233zm4.789 1.053c0 1.684-.783 2.251-1.45 2.251-.783 0-1.414-.712-1.414-2.242 0-1.593.711-2.26 1.458-2.26.776 0 1.406.73 1.406 2.251zm-2.17 0c0 .721.126 1.701.756 1.701.594 0 .711-1.026.711-1.701 0-.666-.117-1.692-.729-1.692-.62 0-.738 1.026-.738 1.692zm3.231-2.178l.423 2.134c.081.468.18.937.234 1.387h.036c.063-.45.171-.955.271-1.369l.504-2.151h.531l.477 2.089c.108.486.207.945.279 1.432h.036c.054-.459.135-.909.234-1.404l.414-2.116h.693l-1.099 4.357h-.567l-.503-2.117a12.152 12.152 0 0 1-.243-1.306h-.018c-.072.513-.153.918-.252 1.332l-.522 2.089H88.2l-1.062-4.357h.719zm5.589-1.153v1.152h.837v.531h-.837v2.584c0 .567.207.72.459.72.108 0 .198-.009.279-.026l.027.531a1.522 1.522 0 0 1-.513.071c-.27 0-.513-.071-.684-.261-.171-.198-.261-.495-.261-1.099v-2.521h-.531v-.531h.531v-.954l.693-.197zm1.449-.719h.693v2.34h.018a1.23 1.23 0 0 1 .36-.378c.162-.099.333-.162.585-.162.549 0 1.018.441 1.018 1.54v2.89h-.693v-2.809c0-.531-.117-1.035-.585-1.035-.324 0-.567.233-.675.692-.018.1-.027.226-.027.334v2.817h-.693v-6.229zm40.897-28.807a4.028 4.028 0 0 1 1.008-.117c.558 0 1.026.135 1.341.45.297.288.45.729.45 1.251 0 .559-.135.937-.369 1.242-.333.45-.891.676-1.431.676-.117 0-.207 0-.306-.009v2.484h-.693v-5.977zm.693 2.908c.081.019.153.027.27.027.684 0 1.144-.45 1.144-1.306 0-.621-.261-1.179-1.026-1.179-.162 0-.297.018-.387.045v2.413zm4.338 3.07l-.045-.459h-.027c-.189.333-.495.531-.864.531-.585 0-1.036-.495-1.036-1.242 0-1.09.874-1.576 1.855-1.585v-.135c0-.585-.145-.99-.693-.99-.27 0-.513.09-.72.225l-.153-.486c.18-.135.585-.288 1.018-.288.873 0 1.251.576 1.251 1.558v1.882c0 .333 0 .711.045.99h-.631zm-.099-2.251c-.36 0-1.197.063-1.197 1.009 0 .567.288.774.531.774.306 0 .567-.226.648-.657.018-.081.018-.171.018-.243v-.883zm3.78 2.143c-.153.091-.414.162-.72.162-.955 0-1.594-.765-1.594-2.205 0-1.252.63-2.269 1.72-2.269.234 0 .486.062.612.135l-.135.567a1.13 1.13 0 0 0-.495-.117c-.693 0-1.008.828-1.008 1.684 0 1.017.387 1.629 1.026 1.629.189 0 .342-.045.504-.117l.09.531zm1.278-2.224h.018c.081-.171.153-.342.234-.485l.864-1.54h.747l-1.152 1.837 1.251 2.521h-.774l-.945-2.053-.243.405v1.647h-.693v-6.229h.693v3.897zm2.853.217c.009 1.332.531 1.62 1.036 1.62.297 0 .549-.072.72-.171l.108.513c-.243.136-.612.207-.955.207-1.044 0-1.584-.854-1.584-2.188 0-1.413.594-2.296 1.468-2.296.891 0 1.242.937 1.242 1.927 0 .162 0 .279-.009.388h-2.026zm1.368-.514c.018-.873-.315-1.261-.648-1.261-.45 0-.684.667-.711 1.261h1.359zm2.259-2.881v1.152h.837v.531h-.837v2.584c0 .567.207.72.459.72.108 0 .198-.009.279-.026l.027.531a1.522 1.522 0 0 1-.513.071c-.27 0-.513-.071-.684-.261-.171-.198-.261-.495-.261-1.099v-2.521h-.531v-.531h.531v-.954l.693-.197zm2.916-.557h.693v5.482h1.71v.585h-2.404V41.02zm5.572 3.888c0 1.684-.783 2.251-1.45 2.251-.783 0-1.414-.712-1.414-2.242 0-1.593.711-2.26 1.458-2.26.775 0 1.406.73 1.406 2.251zm-2.17 0c0 .721.126 1.701.756 1.701.594 0 .711-1.026.711-1.701 0-.666-.117-1.692-.729-1.692-.621 0-.738 1.026-.738 1.692zm2.825 1.459c.153.099.423.225.702.225.396 0 .639-.243.639-.63 0-.333-.117-.559-.558-.855-.567-.369-.873-.738-.873-1.242 0-.702.522-1.207 1.197-1.207.342 0 .603.117.783.226l-.189.522a1.024 1.024 0 0 0-.576-.189.534.534 0 0 0-.567.549c0 .298.108.459.54.757.504.324.9.72.9 1.323 0 .873-.594 1.296-1.305 1.296-.324 0-.675-.099-.864-.252l.171-.523zm2.601 0c.153.099.423.225.702.225.396 0 .639-.243.639-.63 0-.333-.117-.559-.558-.855-.567-.369-.873-.738-.873-1.242 0-.702.522-1.207 1.198-1.207.342 0 .603.117.783.226l-.189.522a1.026 1.026 0 0 0-.576-.189.534.534 0 0 0-.567.549c0 .298.108.459.54.757.504.324.9.72.9 1.323 0 .873-.594 1.296-1.305 1.296-.324 0-.675-.099-.864-.252l.17-.523zM14.972 30.962v-.45l.495-.675c.693-.964 1.521-2.062 1.521-3.16 0-.648-.288-1.044-.837-1.044-.423 0-.693.225-.846.323l-.171-.521a1.831 1.831 0 0 1 1.143-.396c.973 0 1.396.721 1.396 1.603 0 1.099-.72 2.16-1.44 3.151l-.396.54v.018h1.954v.612h-2.819zm3.465 0v-.45l.495-.675c.693-.964 1.521-2.062 1.521-3.16 0-.648-.288-1.044-.837-1.044-.423 0-.693.225-.846.323l-.171-.521a1.831 1.831 0 0 1 1.143-.396c.973 0 1.396.721 1.396 1.603 0 1.099-.72 2.16-1.44 3.151l-.396.54v.018h1.954v.612h-2.819zm6.4-2.935c0 2.134-.675 3.007-1.521 3.007-.91 0-1.458-1.081-1.458-2.989 0-1.972.585-3.007 1.54-3.007.944 0 1.439 1.125 1.439 2.989zm-2.287.009c0 1.413.243 2.403.819 2.403.549 0 .774-.999.774-2.403 0-1.368-.225-2.403-.783-2.403s-.81.999-.81 2.403z" class=""/></svg>